<svg id="Group_872" data-name="Group 872" xmlns="http://www.w3.org/2000/svg" width="40" height="104.155" viewBox="0 0 40 104.155">
  <rect id="Rectangle_1859" data-name="Rectangle 1859" width="40" height="40" fill="#31c27c" opacity="0"/>
  <g id="彩色字logo" transform="translate(0)">
    <path id="Path_166" data-name="Path 166" d="M115.018,471.493a2.624,2.624,0,0,0-.356-.263c-.309-.155-.65-.294-.959-.433.015-.093.031-.17.046-.263-.232.17-.464.356-.774.588-.248-.418-.464-.8-.727-1.269-.356-.062-.851-.17-1.346-.263.062-.077.108-.155.17-.232-.294-.31-.6-.619-.913-.944l1.052-.155a6.493,6.493,0,0,0-.526-.99.82.82,0,0,0-.7-.2,1.674,1.674,0,0,1-2.182-.789,3.043,3.043,0,0,0-.557-.588c.557-.124,1.13-.263,1.764-.4a1.249,1.249,0,0,0-2.213.248,2.787,2.787,0,0,1-.418-.634c-.526-1.872-1.965-3.172-2.986-4.735a13.616,13.616,0,0,1-1.841-2.723c-.387-1.161-1.547-1.981-1.393-3.342a.787.787,0,0,0-.263-.619,2.676,2.676,0,0,1-.774-1.919c-.309-1.764-.82-3.5-1.207-5.246a16.868,16.868,0,0,1-.232-1.981c-.077-.7-.17-1.393-.217-2.089-.015-.2.248-.418.232-.619-.046-.634-.155-1.253-.217-1.888a4.531,4.531,0,0,1,.062-1.578c.031.232.077.449.124.7.062-.062.139-.093.139-.124-.062-3.667,2.058-6.1,4.735-8.108a43.322,43.322,0,0,1,4.72-2.77c1.207-.681,2.445-1.315,3.451-1.857.6.093,1.021.155,1.362.2.108.65.17,1.424.356,2.182a3.725,3.725,0,0,1-.2,2.491,1.124,1.124,0,0,1-1.749.5,1.346,1.346,0,0,0-.975-.124,14.989,14.989,0,0,0-6.809,5.168,9.61,9.61,0,0,0-1.656,6.468,4.891,4.891,0,0,1-.17.928,2.425,2.425,0,0,0-.124.8c.17,1.253.387,2.491.588,3.745a4.12,4.12,0,0,0,.155.758c.928,2.46,1.424,5.075,2.662,7.427,1.857,3.513,4.41,6.53,6.731,9.7a5.518,5.518,0,0,0,1.393,1.207c1.052.727,2.151,1.408,3.265,2.135-.17.155-.34.309-.511.449.046.062.077.124.124.186.248-.155.511-.309.8-.5,1.006.619,1.052,1.006.093,1.779C115.637,471.493,115.327,471.493,115.018,471.493Z" transform="translate(-85.354 -367.354)" fill="#31c27c"/>
    <path id="Path_167" data-name="Path 167" d="M140.037,50.714c-.526.928-1.006,1.888-1.609,2.77-.975,1.424-2.522,1.888-4.085,2.259a10.055,10.055,0,0,1-4.89-.046,5.33,5.33,0,0,1-1.377-.65c-.433-.263-.7-.6-.062-.99-.959-1.455-2.414-2.244-3.714-3.342a6.635,6.635,0,0,1,1.1-.062c1.331.17,2.646.371,3.977.6a6.815,6.815,0,0,0,4.58-1.021,2.458,2.458,0,0,0,.712-.975c.464-.82.743-1.764,1.671-2.259h.774a1.924,1.924,0,0,0,.48.155,2.023,2.023,0,0,1,1.965,1.331,6.581,6.581,0,0,0,.5.836C140.037,49.785,140.037,50.25,140.037,50.714Z" transform="translate(-108.052 -47)" fill="#31c27c"/>
    <path id="Path_168" data-name="Path 168" d="M108.141,338.756c1.068.108,2.182.016,3.048.851.17.155.4.309.464.511.634,2.1,1.455,4.162.124,6.375-1.64,2.739-3.9,4.255-7.118,3.853a7.91,7.91,0,0,1-2.785-1.207c-1.238-.712-2.414-1.578-3.621-2.352a1.324,1.324,0,0,1-.789-1.191,9.446,9.446,0,0,0-.5-1.888,1.621,1.621,0,0,1,.619-1.563,6.911,6.911,0,0,1,4.5-2.135c1.052-.124,2.1-.077,3.157-.186.433-.046,1.037-.155,1.238-.449A1.416,1.416,0,0,1,108.141,338.756Zm-4.147,7.752a1.748,1.748,0,0,0,1.81-1.037,8.409,8.409,0,0,0,.325-1.671c-.5-.046-.975-.093-1.47-.108a.61.61,0,0,0-.449.093c-.2.2-.48.449-.48.681C103.762,345.131,103.9,345.812,103.994,346.508Z" transform="translate(-84.915 -293.572)" fill="#31c27c"/>
    <path id="Path_169" data-name="Path 169" d="M108.3,124.9c-.712-.077-1.439-.139-2.151-.217-.449-.046-.882-.139-.99-.681-.015-.093-.17-.17-.248-.248a10.2,10.2,0,0,1-1.114-1.207c-.449-.7-.836-1.362-1.826-1.269a3.072,3.072,0,0,1-1.733-1.532c-.062-1.037-.232-2.027.882-2.8a6.669,6.669,0,0,1,3-1.47c2.166-.248,4.333-.588,6.5-.7a6.021,6.021,0,0,1,2.29.743,20.515,20.515,0,0,0,1.9.789c1.006.279,1.393.65,1.408,1.718a5.8,5.8,0,0,1-1.733,4.317A8.246,8.246,0,0,1,108.3,124.9Zm-1.284-5.849c-.139,1.284.294,1.81,1.439,1.656a6.753,6.753,0,0,0,2.089-.681c.356-.186.557-.681.959-1.191C109.835,118.915,108.442,118.992,107.019,119.054Z" transform="translate(-87.677 -104.292)" fill="#31c27c"/>
    <path id="Path_170" data-name="Path 170" d="M19.3,190.407c.17.031.511.077.851.155.526.139,1.052.294,1.656.48.015-.093,0,.015-.015.139-.015.093-.031.2-.062.371.774.093,1.532.17,2.29.248.015-.046.031-.108.046-.155-.294-.139-.588-.279-.882-.433.015-.046.015-.108.031-.155,1.114.062,2.228.077,3.342.217a34.258,34.258,0,0,0,15.133-1.934,2.172,2.172,0,0,0,1.547-1.486,1.069,1.069,0,0,1,.263-.464,6.775,6.775,0,0,1,2.956-.263,1.975,1.975,0,0,0,.619.217,1.231,1.231,0,0,1,1.083,1.733,4.853,4.853,0,0,1-3.4,3.389c-1.1.248-2.213.48-3.3.758a20.085,20.085,0,0,0-2.383.681,17.171,17.171,0,0,1-5.911.975c-1.95.046-3.9-.217-5.849-.34a3.417,3.417,0,0,1-1.516-.186c-.774-.5-1.594-.263-2.352-.433a2.512,2.512,0,0,1-1.872-1.3A14.008,14.008,0,0,0,19.3,190.407Zm7.319,3c-1.485-.371-1.625-.325-1.547.294C25.536,193.61,25.985,193.533,26.619,193.409Z" transform="translate(-19.3 -165.386)" fill="#31c27c"/>
    <path id="Path_171" data-name="Path 171" d="M132.461,286.831c1.238.309,2.321-.511,3.2-.8a2.537,2.537,0,0,1,2.631,4.286,6.6,6.6,0,0,1-3.807,2.043c-.464.077-.65-.542-1.114-.727-.17-.062-.48.031-.665-.031a14.293,14.293,0,0,1-2.337-.789c-.774-.418-.758-.8.015-1.253.65-.371,1.315-.7,1.981-1.052C133.3,288.007,132.771,287.713,132.461,286.831Z" transform="translate(-112.701 -248.92)" fill="#31c27c"/>
    <path id="Path_172" data-name="Path 172" d="M134.425,248.491c-.015,1.764-.232,2.12-1.919,2.692a10.985,10.985,0,0,1-2.089.464,1.729,1.729,0,0,1-1.037-.217c-.959-.573-1.872-1.222-2.8-1.841-.325-.217-.665-.387-.975-.619-.17-.124-.449-.34-.418-.464a.866.866,0,0,1,.464-.526,20.292,20.292,0,0,1,2.306-.619,2.451,2.451,0,0,0,1.764-1.238c.108-.217.309-.542.5-.557.975-.062,1.145.371,2.925.015.9-.17,1.238,1.238,1.3,2.2C134.44,248.027,134.425,248.259,134.425,248.491Z" transform="translate(-108.8 -214.835)" fill="#31c27c"/>
    <path id="Path_173" data-name="Path 173" d="M89.594,177.4c.65.155,1.315.263,1.934.464a.823.823,0,0,1,.573,1.161,4.551,4.551,0,0,0-.2,1.13,2.594,2.594,0,0,1-1.934,2.337,1.475,1.475,0,0,1-1.052-.217.663.663,0,0,0-.944-.015,2.272,2.272,0,0,1-.758.356c-.65.155-.882-.093-.913-.758a5.709,5.709,0,0,0-.309-1.7,1.509,1.509,0,0,1,1.083-2.2c.6-.155,1.191-.309,1.795-.433a5.093,5.093,0,0,1,.7-.046A.1.1,0,0,0,89.594,177.4Z" transform="translate(-75.544 -157.222)" fill="#31c27c"/>
  </g>
</svg>
